#!OML:ASF E:\Steps\Project 1\Capture day 1\Session 2\Subject.ASF
:FULLY-SPECIFIED
:DEGREES
1
root 9.29355 16.3138 20.0389 -152.03 -2.90638 -179.914
lowerback -30.1633 -1.35014 -5.81917
upperback -3.68162 -1.0357 0.481335
thorax 11.7562 -1.20146 3.17881
lowerneck -2.06298 0.161013 -4.87744
upperneck 9.33578 -0.502249 7.2045
head 3.46731 -0.298589 3.27164
rclavicle -2.23633e-016 -2.74323e-014
rhumerus -37.354 -24.5974 -73.5373
rradius 22.6287
rwrist 9.16907
rhand -6.55889 -54.7471
rfingers 7.12502
rthumb 19.295 -83.8099
lclavicle -2.23633e-016 -2.74323e-014
lhumerus -31.4537 10.9443 78.1902
lradius 15.7051
lwrist -13.4912
lhand -20.9276 -11.9448
lfingers 7.12502
lthumb 5.44427 17.9653
rfemur -23.8888 7.75055 18.1006
rtibia 5.77875
rfoot -18.835 -8.95578
rtoes -27.5229
lfemur -25.1538 -10.1343 -15.9535
ltibia 7.47435
lfoot -7.75735 5.15021
ltoes -39.4424
2
root 9.29207 16.3132 20.0364 -151.938 -2.85708 -179.808
lowerback -30.3144 -1.26889 -5.57906
upperback -3.68443 -0.998178 0.386776
thorax 11.8118 -1.17828 2.95808
lowerneck -2.05508 0.130753 -4.74921
upperneck 9.21987 -0.533266 7.14876
head 3.42542 -0.309386 3.224
rclavicle 1.12313e-014 -7.95139e-015
rhumerus -37.3661 -24.3188 -73.8617
rradius 22.768
rwrist 8.68534
rhand -6.42532 -54.2857
rfingers 7.12502
rthumb 19.4235 -83.3356
lclavicle 1.12313e-014 -7.95139e-015
lhumerus -31.4238 11.1903 77.8738
lradius 15.5361
lwrist -13.7788
lhand -21.0471 -12.4395
lfingers 7.12502
lthumb 5.32887 17.4735
rfemur -24.0097 8.04872 18.1362
rtibia 5.81616
rfoot -18.677 -9.18537
rtoes -26.8679
lfemur -25.2394 -10.1577 -15.8272
ltibia 7.5017
lfoot -7.77446 5.32496
ltoes -39.1536
3
root 9.29165 16.3138 20.0316 -152.003 -2.88693 -179.766
lowerback -30.3389 -1.24354 -5.41424
upperback -3.64695 -1.00071 0.300814
thorax 11.8628 -1.17074 2.77558
lowerneck -1.98624 0.103851 -4.638
upperneck 9.07306 -0.559175 7.09152
head 3.36096 -0.319588 3.17809
rclavicle -7.7526e-015 -2.26615e-014
rhumerus -37.3572 -24.0815 -74.1794
rradius 22.8973
rwrist 8.358
rhand -6.38143 -54.1603
rfingers 7.12502
rthumb 19.4657 -83.2059
lclavicle -7.7526e-015 -2.26615e-014
lhumerus -31.4302 11.3151 77.6153
lradius 15.4975
lwrist -13.8158
lhand -20.8463 -12.5764
lfingers 7.12502
lthumb 5.52278 17.3317
rfemur -23.9048 8.05399 18.2095
rtibia 5.80478
rfoot -18.6115 -9.17662
rtoes -26.5595
lfemur -25.131 -10.0439 -15.8269
ltibia 7.47199
lfoot -7.73374 5.20754
ltoes -39.1275
4
root 9.29124 16.3139 20.0297 -151.989 -2.89161 -179.727
lowerback -30.4326 -1.21922 -5.24878
upperback -3.62042 -1.0072 0.210736
thorax 11.9312 -1.16762 2.58497
lowerneck -1.95515 0.0792986 -4.52187
upperneck 8.93014 -0.579597 7.03023
head 3.30475 -0.326013 3.13072
rclavicle 9.0447e-015 -1.78906e-014
rhumerus -37.3104 -24.187 -74.3393
rradius 22.8552
rwrist 8.36474
rhand -6.313 -53.9857
rfingers 7.12502
rthumb 19.5314 -83.0247
lclavicle 9.0447e-015 -1.78906e-014
lhumerus -31.4076 11.2999 77.4387
lradius 15.4974
lwrist -13.6847
lhand -20.7018 -12.629
lfingers 7.12502
lthumb 5.66224 17.2754
rfemur -23.9405 7.98451 18.2698
rtibia 5.84964
rfoot -18.7406 -9.07577
rtoes -26.5401
lfemur -25.171 -9.92385 -15.8091
ltibia 7.53639
lfoot -7.70629 5.09696
ltoes -39.4633
5
root 9.29023 16.3149 20.0286 -152.015 -2.92407 -179.736
lowerback -30.47 -1.20235 -5.09072
upperback -3.58041 -1.01403 0.0844
thorax 11.9897 -1.16212 2.36072
lowerneck -1.88306 0.0521193 -4.43382
upperneck 8.78356 -0.605548 6.98178
head 3.24044 -0.337021 3.09267
rclavicle -5.11871e-015 1.98785e-015
rhumerus -37.2098 -24.118 -74.7159
rradius 23.2947
rwrist 8.82803
rhand -5.97172 -54.8698
rfingers 7.12502
rthumb 19.8595 -83.8752
lclavicle -5.11871e-015 1.98785e-015
lhumerus -31.3387 11.5036 77.1521
lradius 15.4154
lwrist -13.8622
lhand -20.7419 -12.702
lfingers 7.12502
lthumb 5.62353 17.2034
rfemur -23.893 7.92792 18.28
rtibia 5.83225
rfoot -18.8004 -9.05522
rtoes -26.9559
lfemur -25.1503 -10.051 -15.7914
ltibia 7.56044
lfoot -7.74291 5.20292
ltoes -39.3828
6
root 9.28928 16.3151 20.0273 -152.052 -2.97585 -179.776
lowerback -30.5625 -1.16774 -4.85184
upperback -3.49345 -1.00297 -0.138555
thorax 12.1214 -1.14314 1.9947
lowerneck -1.10611 0.0447572 -4.14769
upperneck 7.71927 -0.558509 6.89891
head 2.72374 -0.313426 2.9848
rclavicle -1.83876e-015 -1.11319e-014
rhumerus -37.1415 -24.4384 -74.9624
rradius 22.909
rwrist 8.40457
rhand -8.59851 -48.9003
rfingers 7.12502
rthumb 17.3329 -78.1474
lclavicle -1.83876e-015 -1.11319e-014
lhumerus -31.1619 11.8302 76.6996
lradius 15.2521
lwrist -14.3029
lhand -20.8657 -12.5386
lfingers 7.12502
lthumb 5.50405 17.3699
rfemur -23.8207 7.75561 18.2886
rtibia 5.80688
rfoot -18.7198 -8.97988
rtoes -27.4375
lfemur -25.1022 -10.1783 -15.8129
ltibia 7.53826
lfoot -7.78858 5.278
ltoes -39.5171
7
root 9.28841 16.3138 20.0254 -152.059 -2.95789 -179.807
lowerback -30.617 -1.18162 -4.88435
upperback -3.45323 -1.00034 -0.1425
thorax 12.1902 -1.14301 2.00772
lowerneck -1.11181 -0.00522719 -4.07883
upperneck 7.60987 -0.603665 6.76442
head 2.68836 -0.334219 2.92265
rclavicle -1.39149e-015 6.36111e-015
rhumerus -37.0655 -24.4639 -74.9798
rradius 22.9358
rwrist 8.47689
rhand -8.86477 -49.9407
rfingers 7.12502
rthumb 17.0766 -79.2102
lclavicle -1.39149e-015 6.36111e-015
lhumerus -31.0473 12.1374 76.6416
lradius 15.1532
lwrist -14.578
lhand -20.9813 -12.153
lfingers 7.12502
lthumb 5.39241 17.7584
rfemur -23.8036 7.49334 18.3135
rtibia 5.81062
rfoot -18.621 -8.74593
rtoes -27.5865
lfemur -25.0686 -10.178 -15.869
ltibia 7.51783
lfoot -7.78071 5.28482
ltoes -39.9463
8
root 9.28784 16.3129 20.0236 -152.063 -2.93585 -179.809
lowerback -30.6404 -1.18461 -4.89805
upperback -3.44701 -0.998701 -0.139818
thorax 12.2072 -1.14339 2.01802
lowerneck -1.08805 -0.0465694 -4.00153
upperneck 7.50244 -0.639417 6.62451
head 2.64738 -0.351232 2.85727
rclavicle -1.11816e-014 -6.36111e-015
rhumerus -37.0918 -24.4491 -75.0036
rradius 23.0622
rwrist 8.35205
rhand -9.03495 -50.0594
rfingers 7.12502
rthumb 16.9128 -79.3429
lclavicle -1.11816e-014 -6.36111e-015
lhumerus -31.0237 12.0991 76.7078
lradius 15.1984
lwrist -14.3849
lhand -20.9978 -11.8856
lfingers 7.12502
lthumb 5.37643 18.0262
rfemur -23.8137 7.34131 18.3444
rtibia 5.85163
rfoot -18.5997 -8.5849
rtoes -27.6532
lfemur -25.0122 -10.1997 -15.8807
ltibia 7.4454
lfoot -7.75483 5.32486
ltoes -39.5658
9
root 9.28783 16.3131 20.0231 -152.065 -2.95157 -179.793
lowerback -30.602 -1.1889 -4.90307
upperback -3.49008 -1.01501 -0.120482
thorax 12.1434 -1.15227 2.03608
lowerneck -1.02906 -0.0905719 -3.92498
upperneck 7.40028 -0.681034 6.47853
head 2.60192 -0.372432 2.78985
rclavicle 6.70898e-015 1.23246e-014
rhumerus -37.1244 -24.3566 -75.0601
rradius 23.1506
rwrist 8.31274
rhand -9.19048 -50.3145
rfingers 7.12502
rthumb 16.7631 -79.6109
lclavicle 6.70898e-015 1.23246e-014
lhumerus -31.0988 11.8816 76.819
lradius 15.2674
lwrist -14.2533
lhand -21.1551 -11.7998
lfingers 7.12502
lthumb 5.22456 18.1158
rfemur -23.8235 7.33581 18.3637
rtibia 5.8795
rfoot -18.6413 -8.5332
rtoes -27.2208
lfemur -24.9827 -10.2391 -15.8449
ltibia 7.37778
lfoot -7.73916 5.34914
ltoes -39.2479
